<svg version="1.1" xmlns="http://www.w3.org/2000/svg" xmlns:xlink="http://www.w3.org/1999/xlink" x="0px" y="0px"
	 viewBox="0 0 546 433.2" style="enable-background:new 0 0 546 433.2;" xml:space="preserve">
  <g id="buttons" class="d-none">
    <rect class="asi" id="lightning" x="72.2" y="33.8" style="" width="391.4" height="19"/>
    <rect class="asi" id="financial-loss" x="72.2" y="53.8" style="" width="391.4" height="19"/>
    <rect class="asi" id="danger" x="72.2" y="73.8" style="" width="391.4" height="19"/>
    <rect class="asi" id="anger-of-others" x="72.2" y="93.8" style="" width="391.4" height="19"/>
    <rect class="asi" id="forgetfulness" x="72.2" y="113.8" style="" width="391.4" height="19"/>
    <rect class="asi" id="jealousy" x="72.2" y="133.8" style="" width="391.4" height="19"/>
    <rect class="asi" id="losing-a-lover" x="72.2" y="153.8" style="" width="391.4" height="19"/>
    <rect class="asi" id="evil-eye" x="72.2" y="173.8" style="" width="391.4" height="19"/>
    <rect class="asi" id="haunting" x="72.2" y="193.8" style="" width="391.4" height="19"/>
    <rect class="asi" id="natural-disasters" x="72.2" y="213.8" style="" width="391.4" height="19"/>
    <rect class="asi" id="physical-tasks" x="72.2" y="233.8" style="" width="391.4" height="19"/>
    <rect class="asi" id="envy" x="72.2" y="253.8" style="" width="391.4" height="19"/>
    <rect class="asi" id="grief" x="72.2" y="273.8" style="" width="391.4" height="17.3"/>
    <rect class="asi" id="worry" x="72.2" y="292.9" style="" width="391.4" height="17"/>
    <rect class="asi" id="unwanted-presence" x="72.2" y="311.8" style="" width="391.4" height="19"/>
    <rect class="asi" id="revenge" x="72.2" y="332.9" style="" width="391.4" height="19"/>
    <rect class="asi" id="age" x="72.2" y="353.1" style="" width="391.4" height="17.7"/>
    <rect class="asi" id="being-undesirable" x="72.2" y="371.8" style="" width="391.4" height="17.4"/>
  </g>
</svg>
